<?xml version="1.0" encoding="utf-8" standalone="no"?>
<!DOCTYPE svg PUBLIC "-//W3C//DTD SVG 1.1//EN"
  "http://www.w3.org/Graphics/SVG/1.1/DTD/svg11.dtd">
<svg xmlns:xlink="http://www.w3.org/1999/xlink" width="181.097086pt" height="70.174688pt" viewBox="0 0 181.097086 70.174688" xmlns="http://www.w3.org/2000/svg" version="1.1">
 <metadata>
  <rdf:RDF xmlns:dc="http://purl.org/dc/elements/1.1/" xmlns:cc="http://creativecommons.org/ns#" xmlns:rdf="http://www.w3.org/1999/02/22-rdf-syntax-ns#">
   <cc:Work>
    <dc:type rdf:resource="http://purl.org/dc/dcmitype/StillImage"/>
    <dc:date>2026-05-02T01:41:04.635593</dc:date>
    <dc:format>image/svg+xml</dc:format>
    <dc:creator>
     <cc:Agent>
      <dc:title>Matplotlib v3.10.8, https://matplotlib.org/</dc:title>
     </cc:Agent>
    </dc:creator>
   </cc:Work>
  </rdf:RDF>
 </metadata>
 <defs>
  <style type="text/css">*{stroke-linejoin: round; stroke-linecap: butt}</style>
 </defs>
 <g id="figure_1">
  <g id="patch_1">
   <path d="M 0 70.174688 
L 181.097086 70.174688 
L 181.097086 0 
L 0 0 
L 0 70.174688 
z
" style="fill: none; opacity: 0"/>
  </g>
  <g id="axes_1">
   <g id="patch_2">
    <path d="M 7.2 52.2 
L 173.254818 52.2 
L 173.254818 7.2 
L 7.2 7.2 
L 7.2 52.2 
z
" style="fill: none; opacity: 0"/>
   </g>
   <g id="line2d_1">
    <path d="M 16.257536 52.2 
L 16.257536 7.2 
" clip-path="url(#p308d433c95)" style="fill: none; stroke-dasharray: 0.9,1.485; stroke-dashoffset: 0; stroke: #888888; stroke-width: 0.9"/>
   </g>
   <g id="matplotlib.axis_1">
    <g id="xtick_1">
     <g id="line2d_2">
      <path d="M 16.257536 52.2 
L 16.257536 7.2 
" clip-path="url(#p308d433c95)" style="fill: none; stroke-dasharray: 0.8,1.32; stroke-dashoffset: 0; stroke: #b0b0b0; stroke-opacity: 0.3; stroke-width: 0.8"/>
     </g>
     <g id="line2d_3">
      <defs>
       <path id="m940d42326f" d="M 0 0 
L 0 2.5 
" style="stroke: #000000; stroke-width: 0.8"/>
      </defs>
      <g>
       <use xlink:href="#m940d42326f" x="16.257536" y="52.2" style="stroke: #000000; stroke-width: 0.8"/>
      </g>
     </g>
     <g id="text_1">
      <!-- 50 -->
      <g transform="translate(11.803786 61.518906) scale(0.07 -0.07)">
       <defs>
        <path id="DejaVuSans-35" d="M 691 4666 
L 3169 4666 
L 3169 4134 
L 1269 4134 
L 1269 2991 
Q 1406 3038 1543 3061 
Q 1681 3084 1819 3084 
Q 2600 3084 3056 2656 
Q 3513 2228 3513 1497 
Q 3513 744 3044 326 
Q 2575 -91 1722 -91 
Q 1428 -91 1123 -41 
Q 819 9 494 109 
L 494 744 
Q 775 591 1075 516 
Q 1375 441 1709 441 
Q 2250 441 2565 725 
Q 2881 1009 2881 1497 
Q 2881 1984 2565 2268 
Q 2250 2553 1709 2553 
Q 1456 2553 1204 2497 
Q 953 2441 691 2322 
L 691 4666 
z
" transform="scale(0.015625)"/>
        <path id="DejaVuSans-30" d="M 2034 4250 
Q 1547 4250 1301 3770 
Q 1056 3291 1056 2328 
Q 1056 1369 1301 889 
Q 1547 409 2034 409 
Q 2525 409 2770 889 
Q 3016 1369 3016 2328 
Q 3016 3291 2770 3770 
Q 2525 4250 2034 4250 
z
M 2034 4750 
Q 2819 4750 3233 4129 
Q 3647 3509 3647 2328 
Q 3647 1150 3233 529 
Q 2819 -91 2034 -91 
Q 1250 -91 836 529 
Q 422 1150 422 2328 
Q 422 3509 836 4129 
Q 1250 4750 2034 4750 
z
" transform="scale(0.015625)"/>
       </defs>
       <use xlink:href="#DejaVuSans-35"/>
       <use xlink:href="#DejaVuSans-30" transform="translate(63.623047 0)"/>
      </g>
     </g>
    </g>
    <g id="xtick_2">
     <g id="line2d_4">
      <path d="M 46.449321 52.2 
L 46.449321 7.2 
" clip-path="url(#p308d433c95)" style="fill: none; stroke-dasharray: 0.8,1.32; stroke-dashoffset: 0; stroke: #b0b0b0; stroke-opacity: 0.3; stroke-width: 0.8"/>
     </g>
     <g id="line2d_5">
      <g>
       <use xlink:href="#m940d42326f" x="46.449321" y="52.2" style="stroke: #000000; stroke-width: 0.8"/>
      </g>
     </g>
     <g id="text_2">
      <!-- 60 -->
      <g transform="translate(41.995571 61.518906) scale(0.07 -0.07)">
       <defs>
        <path id="DejaVuSans-36" d="M 2113 2584 
Q 1688 2584 1439 2293 
Q 1191 2003 1191 1497 
Q 1191 994 1439 701 
Q 1688 409 2113 409 
Q 2538 409 2786 701 
Q 3034 994 3034 1497 
Q 3034 2003 2786 2293 
Q 2538 2584 2113 2584 
z
M 3366 4563 
L 3366 3988 
Q 3128 4100 2886 4159 
Q 2644 4219 2406 4219 
Q 1781 4219 1451 3797 
Q 1122 3375 1075 2522 
Q 1259 2794 1537 2939 
Q 1816 3084 2150 3084 
Q 2853 3084 3261 2657 
Q 3669 2231 3669 1497 
Q 3669 778 3244 343 
Q 2819 -91 2113 -91 
Q 1303 -91 875 529 
Q 447 1150 447 2328 
Q 447 3434 972 4092 
Q 1497 4750 2381 4750 
Q 2619 4750 2861 4703 
Q 3103 4656 3366 4563 
z
" transform="scale(0.015625)"/>
       </defs>
       <use xlink:href="#DejaVuSans-36"/>
       <use xlink:href="#DejaVuSans-30" transform="translate(63.623047 0)"/>
      </g>
     </g>
    </g>
    <g id="xtick_3">
     <g id="line2d_6">
      <path d="M 76.641106 52.2 
L 76.641106 7.2 
" clip-path="url(#p308d433c95)" style="fill: none; stroke-dasharray: 0.8,1.32; stroke-dashoffset: 0; stroke: #b0b0b0; stroke-opacity: 0.3; stroke-width: 0.8"/>
     </g>
     <g id="line2d_7">
      <g>
       <use xlink:href="#m940d42326f" x="76.641106" y="52.2" style="stroke: #000000; stroke-width: 0.8"/>
      </g>
     </g>
     <g id="text_3">
      <!-- 70 -->
      <g transform="translate(72.187356 61.518906) scale(0.07 -0.07)">
       <defs>
        <path id="DejaVuSans-37" d="M 525 4666 
L 3525 4666 
L 3525 4397 
L 1831 0 
L 1172 0 
L 2766 4134 
L 525 4134 
L 525 4666 
z
" transform="scale(0.015625)"/>
       </defs>
       <use xlink:href="#DejaVuSans-37"/>
       <use xlink:href="#DejaVuSans-30" transform="translate(63.623047 0)"/>
      </g>
     </g>
    </g>
    <g id="xtick_4">
     <g id="line2d_8">
      <path d="M 106.832891 52.2 
L 106.832891 7.2 
" clip-path="url(#p308d433c95)" style="fill: none; stroke-dasharray: 0.8,1.32; stroke-dashoffset: 0; stroke: #b0b0b0; stroke-opacity: 0.3; stroke-width: 0.8"/>
     </g>
     <g id="line2d_9">
      <g>
       <use xlink:href="#m940d42326f" x="106.832891" y="52.2" style="stroke: #000000; stroke-width: 0.8"/>
      </g>
     </g>
     <g id="text_4">
      <!-- 80 -->
      <g transform="translate(102.379141 61.518906) scale(0.07 -0.07)">
       <defs>
        <path id="DejaVuSans-38" d="M 2034 2216 
Q 1584 2216 1326 1975 
Q 1069 1734 1069 1313 
Q 1069 891 1326 650 
Q 1584 409 2034 409 
Q 2484 409 2743 651 
Q 3003 894 3003 1313 
Q 3003 1734 2745 1975 
Q 2488 2216 2034 2216 
z
M 1403 2484 
Q 997 2584 770 2862 
Q 544 3141 544 3541 
Q 544 4100 942 4425 
Q 1341 4750 2034 4750 
Q 2731 4750 3128 4425 
Q 3525 4100 3525 3541 
Q 3525 3141 3298 2862 
Q 3072 2584 2669 2484 
Q 3125 2378 3379 2068 
Q 3634 1759 3634 1313 
Q 3634 634 3220 271 
Q 2806 -91 2034 -91 
Q 1263 -91 848 271 
Q 434 634 434 1313 
Q 434 1759 690 2068 
Q 947 2378 1403 2484 
z
M 1172 3481 
Q 1172 3119 1398 2916 
Q 1625 2713 2034 2713 
Q 2441 2713 2670 2916 
Q 2900 3119 2900 3481 
Q 2900 3844 2670 4047 
Q 2441 4250 2034 4250 
Q 1625 4250 1398 4047 
Q 1172 3844 1172 3481 
z
" transform="scale(0.015625)"/>
       </defs>
       <use xlink:href="#DejaVuSans-38"/>
       <use xlink:href="#DejaVuSans-30" transform="translate(63.623047 0)"/>
      </g>
     </g>
    </g>
    <g id="xtick_5">
     <g id="line2d_10">
      <path d="M 137.024676 52.2 
L 137.024676 7.2 
" clip-path="url(#p308d433c95)" style="fill: none; stroke-dasharray: 0.8,1.32; stroke-dashoffset: 0; stroke: #b0b0b0; stroke-opacity: 0.3; stroke-width: 0.8"/>
     </g>
     <g id="line2d_11">
      <g>
       <use xlink:href="#m940d42326f" x="137.024676" y="52.2" style="stroke: #000000; stroke-width: 0.8"/>
      </g>
     </g>
     <g id="text_5">
      <!-- 90 -->
      <g transform="translate(132.570926 61.518906) scale(0.07 -0.07)">
       <defs>
        <path id="DejaVuSans-39" d="M 703 97 
L 703 672 
Q 941 559 1184 500 
Q 1428 441 1663 441 
Q 2288 441 2617 861 
Q 2947 1281 2994 2138 
Q 2813 1869 2534 1725 
Q 2256 1581 1919 1581 
Q 1219 1581 811 2004 
Q 403 2428 403 3163 
Q 403 3881 828 4315 
Q 1253 4750 1959 4750 
Q 2769 4750 3195 4129 
Q 3622 3509 3622 2328 
Q 3622 1225 3098 567 
Q 2575 -91 1691 -91 
Q 1453 -91 1209 -44 
Q 966 3 703 97 
z
M 1959 2075 
Q 2384 2075 2632 2365 
Q 2881 2656 2881 3163 
Q 2881 3666 2632 3958 
Q 2384 4250 1959 4250 
Q 1534 4250 1286 3958 
Q 1038 3666 1038 3163 
Q 1038 2656 1286 2365 
Q 1534 2075 1959 2075 
z
" transform="scale(0.015625)"/>
       </defs>
       <use xlink:href="#DejaVuSans-39"/>
       <use xlink:href="#DejaVuSans-30" transform="translate(63.623047 0)"/>
      </g>
     </g>
    </g>
    <g id="xtick_6">
     <g id="line2d_12">
      <path d="M 167.216461 52.2 
L 167.216461 7.2 
" clip-path="url(#p308d433c95)" style="fill: none; stroke-dasharray: 0.8,1.32; stroke-dashoffset: 0; stroke: #b0b0b0; stroke-opacity: 0.3; stroke-width: 0.8"/>
     </g>
     <g id="line2d_13">
      <g>
       <use xlink:href="#m940d42326f" x="167.216461" y="52.2" style="stroke: #000000; stroke-width: 0.8"/>
      </g>
     </g>
     <g id="text_6">
      <!-- 100 -->
      <g transform="translate(160.535836 61.518906) scale(0.07 -0.07)">
       <defs>
        <path id="DejaVuSans-31" d="M 794 531 
L 1825 531 
L 1825 4091 
L 703 3866 
L 703 4441 
L 1819 4666 
L 2450 4666 
L 2450 531 
L 3481 531 
L 3481 0 
L 794 0 
L 794 531 
z
" transform="scale(0.015625)"/>
       </defs>
       <use xlink:href="#DejaVuSans-31"/>
       <use xlink:href="#DejaVuSans-30" transform="translate(63.623047 0)"/>
       <use xlink:href="#DejaVuSans-30" transform="translate(127.246094 0)"/>
      </g>
     </g>
    </g>
   </g>
   <g id="matplotlib.axis_2"/>
   <g id="line2d_14">
    <path d="M 99.498629 40.745455 
L 38.622531 40.745455 
" clip-path="url(#p308d433c95)" style="fill: none; stroke-dasharray: 5.18,2.24; stroke-dashoffset: 0; stroke: #4c72b0; stroke-opacity: 0.85; stroke-width: 1.4"/>
   </g>
   <g id="line2d_15">
    <path d="M 115.769307 33.381818 
L 43.308256 33.381818 
" clip-path="url(#p308d433c95)" style="fill: none; stroke-dasharray: 5.18,2.24; stroke-dashoffset: 0; stroke: #dd8452; stroke-opacity: 0.85; stroke-width: 1.4"/>
   </g>
   <g id="line2d_16">
    <path d="M 95.311181 26.018182 
L 30.094319 26.018182 
" clip-path="url(#p308d433c95)" style="fill: none; stroke: #55a868; stroke-opacity: 0.85; stroke-width: 1.4; stroke-linecap: square"/>
   </g>
   <g id="line2d_17">
    <path d="M 128.259319 18.654545 
L 47.910213 18.654545 
" clip-path="url(#p308d433c95)" style="fill: none; stroke: #9467bd; stroke-opacity: 0.85; stroke-width: 1.4; stroke-linecap: square"/>
   </g>
   <g id="patch_3">
    <path d="M 7.2 52.2 
L 173.254818 52.2 
" style="fill: none; stroke: #000000; stroke-width: 0.8; stroke-linejoin: miter; stroke-linecap: square"/>
   </g>
   <g id="PathCollection_1">
    <defs>
     <path id="md9e5eeedf0" d="M 0 3.082207 
C 0.817411 3.082207 1.601453 2.757446 2.179449 2.179449 
C 2.757446 1.601453 3.082207 0.817411 3.082207 0 
C 3.082207 -0.817411 2.757446 -1.601453 2.179449 -2.179449 
C 1.601453 -2.757446 0.817411 -3.082207 0 -3.082207 
C -0.817411 -3.082207 -1.601453 -2.757446 -2.179449 -2.179449 
C -2.757446 -1.601453 -3.082207 -0.817411 -3.082207 0 
C -3.082207 0.817411 -2.757446 1.601453 -2.179449 2.179449 
C -1.601453 2.757446 -0.817411 3.082207 0 3.082207 
z
" style="stroke: #4c72b0; stroke-width: 1.6"/>
    </defs>
    <g clip-path="url(#p308d433c95)">
     <use xlink:href="#md9e5eeedf0" x="99.498629" y="40.745455" style="fill: #ffffff; stroke: #4c72b0; stroke-width: 1.6"/>
    </g>
   </g>
   <g id="PathCollection_2">
    <defs>
     <path id="ma3bd381236" d="M -0 4.358899 
L 4.358899 0 
L 0 -4.358899 
L -4.358899 -0 
z
" style="stroke: #4c72b0"/>
    </defs>
    <g clip-path="url(#p308d433c95)">
     <use xlink:href="#ma3bd381236" x="38.622531" y="40.745455" style="fill: #4c72b0; stroke: #4c72b0"/>
    </g>
   </g>
   <g id="PathCollection_3">
    <defs>
     <path id="m2cbdffc359" d="M 0 3.082207 
C 0.817411 3.082207 1.601453 2.757446 2.179449 2.179449 
C 2.757446 1.601453 3.082207 0.817411 3.082207 0 
C 3.082207 -0.817411 2.757446 -1.601453 2.179449 -2.179449 
C 1.601453 -2.757446 0.817411 -3.082207 0 -3.082207 
C -0.817411 -3.082207 -1.601453 -2.757446 -2.179449 -2.179449 
C -2.757446 -1.601453 -3.082207 -0.817411 -3.082207 0 
C -3.082207 0.817411 -2.757446 1.601453 -2.179449 2.179449 
C -1.601453 2.757446 -0.817411 3.082207 0 3.082207 
z
" style="stroke: #dd8452; stroke-width: 1.6"/>
    </defs>
    <g clip-path="url(#p308d433c95)">
     <use xlink:href="#m2cbdffc359" x="115.769307" y="33.381818" style="fill: #ffffff; stroke: #dd8452; stroke-width: 1.6"/>
    </g>
   </g>
   <g id="PathCollection_4">
    <defs>
     <path id="m0cf6fa5e21" d="M -0 4.358899 
L 4.358899 0 
L 0 -4.358899 
L -4.358899 -0 
z
" style="stroke: #dd8452"/>
    </defs>
    <g clip-path="url(#p308d433c95)">
     <use xlink:href="#m0cf6fa5e21" x="43.308256" y="33.381818" style="fill: #dd8452; stroke: #dd8452"/>
    </g>
   </g>
   <g id="PathCollection_5">
    <defs>
     <path id="m6be1f70dd2" d="M 0 3.082207 
C 0.817411 3.082207 1.601453 2.757446 2.179449 2.179449 
C 2.757446 1.601453 3.082207 0.817411 3.082207 0 
C 3.082207 -0.817411 2.757446 -1.601453 2.179449 -2.179449 
C 1.601453 -2.757446 0.817411 -3.082207 0 -3.082207 
C -0.817411 -3.082207 -1.601453 -2.757446 -2.179449 -2.179449 
C -2.757446 -1.601453 -3.082207 -0.817411 -3.082207 0 
C -3.082207 0.817411 -2.757446 1.601453 -2.179449 2.179449 
C -1.601453 2.757446 -0.817411 3.082207 0 3.082207 
z
" style="stroke: #55a868; stroke-width: 1.6"/>
    </defs>
    <g clip-path="url(#p308d433c95)">
     <use xlink:href="#m6be1f70dd2" x="95.311181" y="26.018182" style="fill: #ffffff; stroke: #55a868; stroke-width: 1.6"/>
    </g>
   </g>
   <g id="PathCollection_6">
    <defs>
     <path id="m783ba555a7" d="M 0 3.082207 
C 0.817411 3.082207 1.601453 2.757446 2.179449 2.179449 
C 2.757446 1.601453 3.082207 0.817411 3.082207 0 
C 3.082207 -0.817411 2.757446 -1.601453 2.179449 -2.179449 
C 1.601453 -2.757446 0.817411 -3.082207 0 -3.082207 
C -0.817411 -3.082207 -1.601453 -2.757446 -2.179449 -2.179449 
C -2.757446 -1.601453 -3.082207 -0.817411 -3.082207 0 
C -3.082207 0.817411 -2.757446 1.601453 -2.179449 2.179449 
C -1.601453 2.757446 -0.817411 3.082207 0 3.082207 
z
" style="stroke: #55a868"/>
    </defs>
    <g clip-path="url(#p308d433c95)">
     <use xlink:href="#m783ba555a7" x="30.094319" y="26.018182" style="fill: #55a868; stroke: #55a868"/>
    </g>
   </g>
   <g id="PathCollection_7">
    <defs>
     <path id="m439067c7f1" d="M 0 3.082207 
C 0.817411 3.082207 1.601453 2.757446 2.179449 2.179449 
C 2.757446 1.601453 3.082207 0.817411 3.082207 0 
C 3.082207 -0.817411 2.757446 -1.601453 2.179449 -2.179449 
C 1.601453 -2.757446 0.817411 -3.082207 0 -3.082207 
C -0.817411 -3.082207 -1.601453 -2.757446 -2.179449 -2.179449 
C -2.757446 -1.601453 -3.082207 -0.817411 -3.082207 0 
C -3.082207 0.817411 -2.757446 1.601453 -2.179449 2.179449 
C -1.601453 2.757446 -0.817411 3.082207 0 3.082207 
z
" style="stroke: #9467bd; stroke-width: 1.6"/>
    </defs>
    <g clip-path="url(#p308d433c95)">
     <use xlink:href="#m439067c7f1" x="128.259319" y="18.654545" style="fill: #ffffff; stroke: #9467bd; stroke-width: 1.6"/>
    </g>
   </g>
   <g id="PathCollection_8">
    <defs>
     <path id="m80e9da6af9" d="M 0 3.082207 
C 0.817411 3.082207 1.601453 2.757446 2.179449 2.179449 
C 2.757446 1.601453 3.082207 0.817411 3.082207 0 
C 3.082207 -0.817411 2.757446 -1.601453 2.179449 -2.179449 
C 1.601453 -2.757446 0.817411 -3.082207 0 -3.082207 
C -0.817411 -3.082207 -1.601453 -2.757446 -2.179449 -2.179449 
C -2.757446 -1.601453 -3.082207 -0.817411 -3.082207 0 
C -3.082207 0.817411 -2.757446 1.601453 -2.179449 2.179449 
C -1.601453 2.757446 -0.817411 3.082207 0 3.082207 
z
" style="stroke: #9467bd"/>
    </defs>
    <g clip-path="url(#p308d433c95)">
     <use xlink:href="#m80e9da6af9" x="47.910213" y="18.654545" style="fill: #9467bd; stroke: #9467bd"/>
    </g>
   </g>
  </g>
 </g>
 <defs>
  <clipPath id="p308d433c95">
   <rect x="7.2" y="7.2" width="166.054818" height="45"/>
  </clipPath>
 </defs>
</svg>
